<?xml version="1.0" standalone="no"?>
<!DOCTYPE svg PUBLIC "-//W3C//DTD SVG 20010904//EN"
 "http://www.w3.org/TR/2001/REC-SVG-20010904/DTD/svg10.dtd">
<svg version="1.0" xmlns="http://www.w3.org/2000/svg"
 width="700.000000pt" height="700.000000pt" viewBox="0 0 700.000000 700.000000"
 preserveAspectRatio="xMidYMid meet">
<metadata>
Created by potrace 1.14, written by Peter Selinger 2001-2017
</metadata>
<g transform="translate(0.000000,700.000000) scale(0.100000,-0.100000)"
fill="#000000" stroke="none">
<path d="M0 3500 l0 -3500 3500 0 3500 0 0 3500 0 3500 -3500 0 -3500 0 0
-3500z m2990 678 c278 -466 507 -847 510 -847 3 0 232 381 510 847 l505 847
193 3 192 2 0 -1530 0 -1530 -155 0 -155 0 -2 1291 -3 1291 -531 -888 c-454
-760 -535 -889 -554 -889 -19 0 -100 129 -554 889 l-531 889 -3 -1291 -2
-1292 -155 0 -155 0 0 1530 0 1530 192 -2 193 -3 505 -847z"/>
</g>
</svg>
