<svg width="64" height="65" viewBox="0 0 64 65" fill="none" xmlns="http://www.w3.org/2000/svg">
<path fill-rule="evenodd" clip-rule="evenodd" d="M4.47133 4.52016C0 9.04032 0 16.3154 0 30.8656V33.4377C0 47.988 0 55.263 4.47133 59.7832C8.94266 64.3033 16.1391 64.3033 30.5322 64.3033H33.0765C47.4695 64.3033 54.6659 64.3033 59.1374 59.7832C63.6086 55.263 63.6086 47.988 63.6086 33.4377V30.8656C63.6086 16.3154 63.6086 9.04032 59.1374 4.52016C54.6659 0 47.4695 0 33.0765 0H30.5322C16.1391 0 8.94266 0 4.47133 4.52016ZM10.7341 19.5591C11.0787 36.2779 19.3478 46.3253 33.8452 46.3253H34.667V36.7602C39.9942 37.2961 44.0225 41.2346 45.6392 46.3253H53.1664C51.0991 38.7161 45.6656 34.5096 42.2731 32.902C45.6656 30.9193 50.4362 26.0966 51.5759 19.5591H44.7378C43.2536 24.8641 38.8545 29.6868 34.667 30.1423V19.5591H27.8288V38.0999C23.5882 37.0281 18.2346 31.8303 17.9961 19.5591H10.7341Z" fill="#746F6F"/>
</svg>
