<svg xmlns="http://www.w3.org/2000/svg" xmlns:xlink="http://www.w3.org/1999/xlink"><symbol id="icon-close" viewBox="0 0 94.926 94.926"><g style="enable-background:new 0 0 94.926 94.926"><path d="M55.931 47.463 94.306 9.09a2.118 2.118 0 0 0 0-2.994L88.833.62a2.123 2.123 0 0 0-2.996 0L47.463 38.994 9.089.62c-.795-.795-2.202-.794-2.995 0L.622 6.096a2.117 2.117 0 0 0 0 2.994l38.374 38.373L.622 85.836a2.117 2.117 0 0 0 0 2.994l5.473 5.476a2.123 2.123 0 0 0 2.995 0l38.374-38.374 38.374 38.374c.397.396.937.62 1.498.62s1.101-.224 1.498-.62l5.473-5.476a2.118 2.118 0 0 0 0-2.994L55.931 47.463z"/></g></symbol><symbol id="icon-video" viewBox="0 0 21 21"><g fill="none"><circle cx="10.5" cy="10.5" r="10" stroke="#fff" stroke-opacity=".7"/><path d="M15.25 10.067a.5.5 0 0 1 0 .866L8.5 14.83a.5.5 0 0 1-.75-.433V6.603a.5.5 0 0 1 .75-.433l6.75 3.897Z" stroke="#fff" stroke-opacity=".7"/></g></symbol></svg>